<?xml version="1.0" encoding="UTF-8" standalone="no"?>
<!DOCTYPE svg PUBLIC "-//W3C//DTD SVG 1.1//EN"
 "http://www.w3.org/Graphics/SVG/1.1/DTD/svg11.dtd">
<!-- Generated by graphviz version 2.42.3 (20191010.1750)
 -->
<!-- Title: snakemake_dag Pages: 1 -->
<svg width="1015pt" height="476pt"
 viewBox="0.00 0.00 1014.50 476.00" xmlns="http://www.w3.org/2000/svg" xmlns:xlink="http://www.w3.org/1999/xlink">
<g id="graph0" class="graph" transform="scale(1 1) rotate(0) translate(4 472)">
<title>snakemake_dag</title>
<polygon fill="white" stroke="transparent" points="-4,4 -4,-472 1010.5,-472 1010.5,4 -4,4"/>
<!-- 0 -->
<g id="node1" class="node">
<title>0</title>
<path fill="none" stroke="#56b1d8" stroke-width="2" d="M578,-36C578,-36 548,-36 548,-36 542,-36 536,-30 536,-24 536,-24 536,-12 536,-12 536,-6 542,0 548,0 548,0 578,0 578,0 584,0 590,-6 590,-12 590,-12 590,-24 590,-24 590,-30 584,-36 578,-36"/>
<text text-anchor="middle" x="563" y="-15.5" font-family="sans" font-size="10.00">all</text>
</g>
<!-- 1 -->
<g id="node2" class="node">
<title>1</title>
<path fill="none" stroke="#ced856" stroke-width="2" d="M736,-108C736,-108 682,-108 682,-108 676,-108 670,-102 670,-96 670,-96 670,-84 670,-84 670,-78 676,-72 682,-72 682,-72 736,-72 736,-72 742,-72 748,-78 748,-84 748,-84 748,-96 748,-96 748,-102 742,-108 736,-108"/>
<text text-anchor="middle" x="709" y="-87.5" font-family="sans" font-size="10.00">evalKraken2</text>
</g>
<!-- 1&#45;&gt;0 -->
<g id="edge1" class="edge">
<title>1&#45;&gt;0</title>
<path fill="none" stroke="grey" stroke-width="2" d="M673.28,-71.88C650.83,-61.11 621.94,-47.26 599.36,-36.43"/>
<polygon fill="grey" stroke="grey" stroke-width="2" points="600.64,-33.16 590.11,-32 597.61,-39.48 600.64,-33.16"/>
</g>
<!-- 2 -->
<g id="node3" class="node">
<title>2</title>
<path fill="none" stroke="#b6d856" stroke-width="2" d="M450.5,-108C450.5,-108 411.5,-108 411.5,-108 405.5,-108 399.5,-102 399.5,-96 399.5,-96 399.5,-84 399.5,-84 399.5,-78 405.5,-72 411.5,-72 411.5,-72 450.5,-72 450.5,-72 456.5,-72 462.5,-78 462.5,-84 462.5,-84 462.5,-96 462.5,-96 462.5,-102 456.5,-108 450.5,-108"/>
<text text-anchor="middle" x="431" y="-87.5" font-family="sans" font-size="10.00">evalkASA</text>
</g>
<!-- 2&#45;&gt;0 -->
<g id="edge2" class="edge">
<title>2&#45;&gt;0</title>
<path fill="none" stroke="grey" stroke-width="2" d="M462.62,-72.23C481.93,-61.99 506.69,-48.86 526.79,-38.2"/>
<polygon fill="grey" stroke="grey" stroke-width="2" points="528.47,-41.27 535.66,-33.5 525.19,-35.09 528.47,-41.27"/>
</g>
<!-- 3 -->
<g id="node4" class="node">
<title>3</title>
<path fill="none" stroke="#61d856" stroke-width="2" d="M148.5,-180C148.5,-180 91.5,-180 91.5,-180 85.5,-180 79.5,-174 79.5,-168 79.5,-168 79.5,-156 79.5,-156 79.5,-150 85.5,-144 91.5,-144 91.5,-144 148.5,-144 148.5,-144 154.5,-144 160.5,-150 160.5,-156 160.5,-156 160.5,-168 160.5,-168 160.5,-174 154.5,-180 148.5,-180"/>
<text text-anchor="middle" x="120" y="-159.5" font-family="sans" font-size="10.00">evalkASA128</text>
</g>
<!-- 3&#45;&gt;0 -->
<g id="edge3" class="edge">
<title>3&#45;&gt;0</title>
<path fill="none" stroke="grey" stroke-width="2" d="M137.22,-143.79C158.95,-123.18 198.4,-89.27 239,-72 336.68,-30.46 463.7,-21.31 525.68,-19.41"/>
<polygon fill="grey" stroke="grey" stroke-width="2" points="525.86,-22.9 535.77,-19.14 525.68,-15.91 525.86,-22.9"/>
</g>
<!-- 4 -->
<g id="node5" class="node">
<title>4</title>
<path fill="none" stroke="#56d85b" stroke-width="2" d="M540,-108C540,-108 502,-108 502,-108 496,-108 490,-102 490,-96 490,-96 490,-84 490,-84 490,-78 496,-72 502,-72 502,-72 540,-72 540,-72 546,-72 552,-78 552,-84 552,-84 552,-96 552,-96 552,-102 546,-108 540,-108"/>
<text text-anchor="middle" x="521" y="-87.5" font-family="sans" font-size="10.00">evalclark</text>
</g>
<!-- 4&#45;&gt;0 -->
<g id="edge4" class="edge">
<title>4&#45;&gt;0</title>
<path fill="none" stroke="grey" stroke-width="2" d="M531.38,-71.7C536.26,-63.56 542.19,-53.69 547.58,-44.7"/>
<polygon fill="grey" stroke="grey" stroke-width="2" points="550.59,-46.48 552.74,-36.1 544.59,-42.88 550.59,-46.48"/>
</g>
<!-- 5 -->
<g id="node6" class="node">
<title>5</title>
<path fill="none" stroke="#d8c356" stroke-width="2" d="M629.5,-108C629.5,-108 582.5,-108 582.5,-108 576.5,-108 570.5,-102 570.5,-96 570.5,-96 570.5,-84 570.5,-84 570.5,-78 576.5,-72 582.5,-72 582.5,-72 629.5,-72 629.5,-72 635.5,-72 641.5,-78 641.5,-84 641.5,-84 641.5,-96 641.5,-96 641.5,-102 635.5,-108 629.5,-108"/>
<text text-anchor="middle" x="606" y="-87.5" font-family="sans" font-size="10.00">evalkraken</text>
</g>
<!-- 5&#45;&gt;0 -->
<g id="edge5" class="edge">
<title>5&#45;&gt;0</title>
<path fill="none" stroke="grey" stroke-width="2" d="M595.37,-71.7C590.37,-63.56 584.31,-53.69 578.79,-44.7"/>
<polygon fill="grey" stroke="grey" stroke-width="2" points="581.72,-42.79 573.51,-36.1 575.76,-46.46 581.72,-42.79"/>
</g>
<!-- 6 -->
<g id="node7" class="node">
<title>6</title>
<path fill="none" stroke="#d85656" stroke-width="2" d="M325.5,-108C325.5,-108 260.5,-108 260.5,-108 254.5,-108 248.5,-102 248.5,-96 248.5,-96 248.5,-84 248.5,-84 248.5,-78 254.5,-72 260.5,-72 260.5,-72 325.5,-72 325.5,-72 331.5,-72 337.5,-78 337.5,-84 337.5,-84 337.5,-96 337.5,-96 337.5,-102 331.5,-108 325.5,-108"/>
<text text-anchor="middle" x="293" y="-87.5" font-family="sans" font-size="10.00">evalCentrifuge</text>
</g>
<!-- 6&#45;&gt;0 -->
<g id="edge6" class="edge">
<title>6&#45;&gt;0</title>
<path fill="none" stroke="grey" stroke-width="2" d="M337.59,-77.44C390.16,-63.81 476.6,-41.4 525.76,-28.66"/>
<polygon fill="grey" stroke="grey" stroke-width="2" points="526.85,-31.99 535.66,-26.09 525.1,-25.21 526.85,-31.99"/>
</g>
<!-- 7 -->
<g id="node8" class="node">
<title>7</title>
<path fill="none" stroke="#56d0d8" stroke-width="2" d="M857,-180C857,-180 789,-180 789,-180 783,-180 777,-174 777,-168 777,-168 777,-156 777,-156 777,-150 783,-144 789,-144 789,-144 857,-144 857,-144 863,-144 869,-150 869,-156 869,-156 869,-168 869,-168 869,-174 863,-180 857,-180"/>
<text text-anchor="middle" x="823" y="-159.5" font-family="sans" font-size="10.00">evalmetacache</text>
</g>
<!-- 7&#45;&gt;0 -->
<g id="edge7" class="edge">
<title>7&#45;&gt;0</title>
<path fill="none" stroke="grey" stroke-width="2" d="M814.8,-143.87C804.24,-123.65 784,-90.46 757,-72 709.14,-39.28 641.75,-26.71 600.3,-21.91"/>
<polygon fill="grey" stroke="grey" stroke-width="2" points="600.41,-18.4 590.09,-20.83 599.67,-25.37 600.41,-18.4"/>
</g>
<!-- 8 -->
<g id="node9" class="node">
<title>8</title>
<path fill="none" stroke="#566bd8" stroke-width="2" d="M971,-180C971,-180 927,-180 927,-180 921,-180 915,-174 915,-168 915,-168 915,-156 915,-156 915,-150 921,-144 927,-144 927,-144 971,-144 971,-144 977,-144 983,-150 983,-156 983,-156 983,-168 983,-168 983,-174 977,-180 971,-180"/>
<text text-anchor="middle" x="949" y="-159.5" font-family="sans" font-size="10.00">evalganon</text>
</g>
<!-- 8&#45;&gt;0 -->
<g id="edge8" class="edge">
<title>8&#45;&gt;0</title>
<path fill="none" stroke="grey" stroke-width="2" d="M923.12,-143.9C892,-124.03 837.61,-91.48 787,-72 723.51,-47.57 645.4,-32.19 600.2,-24.63"/>
<polygon fill="grey" stroke="grey" stroke-width="2" points="600.69,-21.17 590.25,-23.01 599.56,-28.07 600.69,-21.17"/>
</g>
<!-- 9 -->
<g id="node10" class="node">
<title>9</title>
<path fill="none" stroke="#80d856" stroke-width="2" d="M756.5,-252C756.5,-252 681.5,-252 681.5,-252 675.5,-252 669.5,-246 669.5,-240 669.5,-240 669.5,-228 669.5,-228 669.5,-222 675.5,-216 681.5,-216 681.5,-216 756.5,-216 756.5,-216 762.5,-216 768.5,-222 768.5,-228 768.5,-228 768.5,-240 768.5,-240 768.5,-246 762.5,-252 756.5,-252"/>
<text text-anchor="middle" x="719" y="-231.5" font-family="sans" font-size="10.00">kraken2_identify</text>
</g>
<!-- 9&#45;&gt;1 -->
<g id="edge9" class="edge">
<title>9&#45;&gt;1</title>
<path fill="none" stroke="grey" stroke-width="2" d="M717.79,-215.87C716.09,-191.67 712.96,-147.21 710.93,-118.39"/>
<polygon fill="grey" stroke="grey" stroke-width="2" points="714.4,-117.92 710.21,-108.19 707.42,-118.41 714.4,-117.92"/>
</g>
<!-- 10 -->
<g id="node11" class="node">
<title>10</title>
<path fill="none" stroke="#56a2d8" stroke-width="2" d="M429,-180C429,-180 399,-180 399,-180 393,-180 387,-174 387,-168 387,-168 387,-156 387,-156 387,-150 393,-144 399,-144 399,-144 429,-144 429,-144 435,-144 441,-150 441,-156 441,-156 441,-168 441,-168 441,-174 435,-180 429,-180"/>
<text text-anchor="middle" x="414" y="-159.5" font-family="sans" font-size="10.00">identify</text>
</g>
<!-- 10&#45;&gt;2 -->
<g id="edge10" class="edge">
<title>10&#45;&gt;2</title>
<path fill="none" stroke="grey" stroke-width="2" d="M418.2,-143.7C420.1,-135.9 422.38,-126.51 424.48,-117.83"/>
<polygon fill="grey" stroke="grey" stroke-width="2" points="427.89,-118.65 426.85,-108.1 421.08,-117 427.89,-118.65"/>
</g>
<!-- 11 -->
<g id="node12" class="node">
<title>11</title>
<path fill="none" stroke="#56c1d8" stroke-width="2" d="M101,-252C101,-252 53,-252 53,-252 47,-252 41,-246 41,-240 41,-240 41,-228 41,-228 41,-222 47,-216 53,-216 53,-216 101,-216 101,-216 107,-216 113,-222 113,-228 113,-228 113,-240 113,-240 113,-246 107,-252 101,-252"/>
<text text-anchor="middle" x="77" y="-231.5" font-family="sans" font-size="10.00">identify128</text>
</g>
<!-- 11&#45;&gt;3 -->
<g id="edge11" class="edge">
<title>11&#45;&gt;3</title>
<path fill="none" stroke="grey" stroke-width="2" d="M87.63,-215.7C92.63,-207.56 98.69,-197.69 104.21,-188.7"/>
<polygon fill="grey" stroke="grey" stroke-width="2" points="107.24,-190.46 109.49,-180.1 101.28,-186.79 107.24,-190.46"/>
</g>
<!-- 12 -->
<g id="node13" class="node">
<title>12</title>
<path fill="none" stroke="#70d856" stroke-width="2" d="M574,-324C574,-324 472,-324 472,-324 466,-324 460,-318 460,-312 460,-312 460,-300 460,-300 460,-294 466,-288 472,-288 472,-288 574,-288 574,-288 580,-288 586,-294 586,-300 586,-300 586,-312 586,-312 586,-318 580,-324 574,-324"/>
<text text-anchor="middle" x="523" y="-303.5" font-family="sans" font-size="10.00">clark_buildAndIdentify</text>
</g>
<!-- 12&#45;&gt;4 -->
<g id="edge12" class="edge">
<title>12&#45;&gt;4</title>
<path fill="none" stroke="grey" stroke-width="2" d="M522.84,-287.85C522.49,-250.83 521.67,-163.18 521.26,-118.39"/>
<polygon fill="grey" stroke="grey" stroke-width="2" points="524.75,-118.2 521.16,-108.23 517.75,-118.26 524.75,-118.2"/>
</g>
<!-- 13 -->
<g id="node14" class="node">
<title>13</title>
<path fill="none" stroke="#d87d56" stroke-width="2" d="M639.5,-252C639.5,-252 570.5,-252 570.5,-252 564.5,-252 558.5,-246 558.5,-240 558.5,-240 558.5,-228 558.5,-228 558.5,-222 564.5,-216 570.5,-216 570.5,-216 639.5,-216 639.5,-216 645.5,-216 651.5,-222 651.5,-228 651.5,-228 651.5,-240 651.5,-240 651.5,-246 645.5,-252 639.5,-252"/>
<text text-anchor="middle" x="605" y="-231.5" font-family="sans" font-size="10.00">kraken_identify</text>
</g>
<!-- 13&#45;&gt;5 -->
<g id="edge13" class="edge">
<title>13&#45;&gt;5</title>
<path fill="none" stroke="grey" stroke-width="2" d="M605.12,-215.87C605.29,-191.67 605.6,-147.21 605.81,-118.39"/>
<polygon fill="grey" stroke="grey" stroke-width="2" points="609.31,-118.21 605.88,-108.19 602.31,-118.16 609.31,-118.21"/>
</g>
<!-- 14 -->
<g id="node15" class="node">
<title>14</title>
<path fill="none" stroke="#56d882" stroke-width="2" d="M310,-180C310,-180 224,-180 224,-180 218,-180 212,-174 212,-168 212,-168 212,-156 212,-156 212,-150 218,-144 224,-144 224,-144 310,-144 310,-144 316,-144 322,-150 322,-156 322,-156 322,-168 322,-168 322,-174 316,-180 310,-180"/>
<text text-anchor="middle" x="267" y="-159.5" font-family="sans" font-size="10.00">Centrifuge_identify</text>
</g>
<!-- 14&#45;&gt;6 -->
<g id="edge14" class="edge">
<title>14&#45;&gt;6</title>
<path fill="none" stroke="grey" stroke-width="2" d="M273.43,-143.7C276.36,-135.81 279.89,-126.3 283.14,-117.55"/>
<polygon fill="grey" stroke="grey" stroke-width="2" points="286.45,-118.7 286.65,-108.1 279.88,-116.26 286.45,-118.7"/>
</g>
<!-- 15 -->
<g id="node16" class="node">
<title>15</title>
<path fill="none" stroke="#d88d56" stroke-width="2" d="M887.5,-252C887.5,-252 798.5,-252 798.5,-252 792.5,-252 786.5,-246 786.5,-240 786.5,-240 786.5,-228 786.5,-228 786.5,-222 792.5,-216 798.5,-216 798.5,-216 887.5,-216 887.5,-216 893.5,-216 899.5,-222 899.5,-228 899.5,-228 899.5,-240 899.5,-240 899.5,-246 893.5,-252 887.5,-252"/>
<text text-anchor="middle" x="843" y="-231.5" font-family="sans" font-size="10.00">metacache_identify</text>
</g>
<!-- 15&#45;&gt;7 -->
<g id="edge15" class="edge">
<title>15&#45;&gt;7</title>
<path fill="none" stroke="grey" stroke-width="2" d="M838.06,-215.7C835.83,-207.9 833.15,-198.51 830.67,-189.83"/>
<polygon fill="grey" stroke="grey" stroke-width="2" points="834,-188.76 827.89,-180.1 827.27,-190.68 834,-188.76"/>
</g>
<!-- 16 -->
<g id="node17" class="node">
<title>16</title>
<path fill="none" stroke="#97d856" stroke-width="2" d="M994.5,-252C994.5,-252 929.5,-252 929.5,-252 923.5,-252 917.5,-246 917.5,-240 917.5,-240 917.5,-228 917.5,-228 917.5,-222 923.5,-216 929.5,-216 929.5,-216 994.5,-216 994.5,-216 1000.5,-216 1006.5,-222 1006.5,-228 1006.5,-228 1006.5,-240 1006.5,-240 1006.5,-246 1000.5,-252 994.5,-252"/>
<text text-anchor="middle" x="962" y="-231.5" font-family="sans" font-size="10.00">ganon_identify</text>
</g>
<!-- 16&#45;&gt;8 -->
<g id="edge16" class="edge">
<title>16&#45;&gt;8</title>
<path fill="none" stroke="grey" stroke-width="2" d="M958.79,-215.7C957.35,-207.98 955.63,-198.71 954.04,-190.11"/>
<polygon fill="grey" stroke="grey" stroke-width="2" points="957.44,-189.3 952.18,-180.1 950.56,-190.58 957.44,-189.3"/>
</g>
<!-- 17 -->
<g id="node18" class="node">
<title>17</title>
<path fill="none" stroke="#568ad8" stroke-width="2" d="M776,-324C776,-324 714,-324 714,-324 708,-324 702,-318 702,-312 702,-312 702,-300 702,-300 702,-294 708,-288 714,-288 714,-288 776,-288 776,-288 782,-288 788,-294 788,-300 788,-300 788,-312 788,-312 788,-318 782,-324 776,-324"/>
<text text-anchor="middle" x="745" y="-303.5" font-family="sans" font-size="10.00">kraken2_build</text>
</g>
<!-- 17&#45;&gt;9 -->
<g id="edge17" class="edge">
<title>17&#45;&gt;9</title>
<path fill="none" stroke="grey" stroke-width="2" d="M738.57,-287.7C735.64,-279.81 732.11,-270.3 728.86,-261.55"/>
<polygon fill="grey" stroke="grey" stroke-width="2" points="732.12,-260.26 725.35,-252.1 725.55,-262.7 732.12,-260.26"/>
</g>
<!-- 18 -->
<g id="node19" class="node">
<title>18</title>
<path fill="none" stroke="#56d8a9" stroke-width="2" d="M374,-252C374,-252 344,-252 344,-252 338,-252 332,-246 332,-240 332,-240 332,-228 332,-228 332,-222 338,-216 344,-216 344,-216 374,-216 374,-216 380,-216 386,-222 386,-228 386,-228 386,-240 386,-240 386,-246 380,-252 374,-252"/>
<text text-anchor="middle" x="359" y="-231.5" font-family="sans" font-size="10.00">shrink</text>
</g>
<!-- 18&#45;&gt;10 -->
<g id="edge18" class="edge">
<title>18&#45;&gt;10</title>
<path fill="none" stroke="grey" stroke-width="2" d="M372.6,-215.7C379.12,-207.39 387.07,-197.28 394.25,-188.14"/>
<polygon fill="grey" stroke="grey" stroke-width="2" points="397.13,-190.13 400.56,-180.1 391.63,-185.81 397.13,-190.13"/>
</g>
<!-- 19 -->
<g id="node20" class="node">
<title>19</title>
<path fill="none" stroke="#56d892" stroke-width="2" d="M430,-324C430,-324 380,-324 380,-324 374,-324 368,-318 368,-312 368,-312 368,-300 368,-300 368,-294 374,-288 380,-288 380,-288 430,-288 430,-288 436,-288 442,-294 442,-300 442,-300 442,-312 442,-312 442,-318 436,-324 430,-324"/>
<text text-anchor="middle" x="405" y="-303.5" font-family="sans" font-size="10.00">createIndex</text>
</g>
<!-- 19&#45;&gt;10 -->
<g id="edge19" class="edge">
<title>19&#45;&gt;10</title>
<path fill="none" stroke="grey" stroke-width="2" d="M406.09,-287.87C407.62,-263.67 410.44,-219.21 412.26,-190.39"/>
<polygon fill="grey" stroke="grey" stroke-width="2" points="415.77,-190.39 412.91,-180.19 408.78,-189.95 415.77,-190.39"/>
</g>
<!-- 19&#45;&gt;18 -->
<g id="edge30" class="edge">
<title>19&#45;&gt;18</title>
<path fill="none" stroke="grey" stroke-width="2" d="M393.63,-287.7C388.28,-279.56 381.8,-269.69 375.89,-260.7"/>
<polygon fill="grey" stroke="grey" stroke-width="2" points="378.66,-258.54 370.24,-252.1 372.81,-262.38 378.66,-258.54"/>
</g>
<!-- 20 -->
<g id="node21" class="node">
<title>20</title>
<path fill="none" stroke="#56d8b9" stroke-width="2" d="M80,-324C80,-324 12,-324 12,-324 6,-324 0,-318 0,-312 0,-312 0,-300 0,-300 0,-294 6,-288 12,-288 12,-288 80,-288 80,-288 86,-288 92,-294 92,-300 92,-300 92,-312 92,-312 92,-318 86,-324 80,-324"/>
<text text-anchor="middle" x="46" y="-303.5" font-family="sans" font-size="10.00">createIndex128</text>
</g>
<!-- 20&#45;&gt;11 -->
<g id="edge20" class="edge">
<title>20&#45;&gt;11</title>
<path fill="none" stroke="grey" stroke-width="2" d="M53.66,-287.7C57.19,-279.73 61.46,-270.1 65.37,-261.26"/>
<polygon fill="grey" stroke="grey" stroke-width="2" points="68.58,-262.67 69.43,-252.1 62.18,-259.83 68.58,-262.67"/>
</g>
<!-- 21 -->
<g id="node22" class="node">
<title>21</title>
<path fill="none" stroke="#d8d356" stroke-width="2" d="M562.5,-396C562.5,-396 481.5,-396 481.5,-396 475.5,-396 469.5,-390 469.5,-384 469.5,-384 469.5,-372 469.5,-372 469.5,-366 475.5,-360 481.5,-360 481.5,-360 562.5,-360 562.5,-360 568.5,-360 574.5,-366 574.5,-372 574.5,-372 574.5,-384 574.5,-384 574.5,-390 568.5,-396 562.5,-396"/>
<text text-anchor="middle" x="522" y="-375.5" font-family="sans" font-size="10.00">downloadGenome</text>
</g>
<!-- 21&#45;&gt;12 -->
<g id="edge21" class="edge">
<title>21&#45;&gt;12</title>
<path fill="none" stroke="grey" stroke-width="2" d="M522.25,-359.7C522.36,-351.98 522.49,-342.71 522.61,-334.11"/>
<polygon fill="grey" stroke="grey" stroke-width="2" points="526.11,-334.15 522.76,-324.1 519.11,-334.05 526.11,-334.15"/>
</g>
<!-- 21&#45;&gt;17 -->
<g id="edge27" class="edge">
<title>21&#45;&gt;17</title>
<path fill="none" stroke="grey" stroke-width="2" d="M574.83,-360.85C606.41,-351.15 647.56,-338.42 692.29,-324.21"/>
<polygon fill="grey" stroke="grey" stroke-width="2" points="693.42,-327.52 701.89,-321.15 691.3,-320.85 693.42,-327.52"/>
</g>
<!-- 21&#45;&gt;18 -->
<g id="edge29" class="edge">
<title>21&#45;&gt;18</title>
<path fill="none" stroke="grey" stroke-width="2" d="M469.38,-375.26C431.94,-370.93 384.01,-358.43 359,-324 346.2,-306.38 347.49,-281.2 351.24,-262.11"/>
<polygon fill="grey" stroke="grey" stroke-width="2" points="354.69,-262.75 353.5,-252.22 347.86,-261.19 354.69,-262.75"/>
</g>
<!-- 21&#45;&gt;19 -->
<g id="edge31" class="edge">
<title>21&#45;&gt;19</title>
<path fill="none" stroke="grey" stroke-width="2" d="M493.38,-359.88C478.08,-350.72 459.06,-339.34 442.58,-329.48"/>
<polygon fill="grey" stroke="grey" stroke-width="2" points="444.11,-326.32 433.73,-324.19 440.52,-332.33 444.11,-326.32"/>
</g>
<!-- 21&#45;&gt;20 -->
<g id="edge32" class="edge">
<title>21&#45;&gt;20</title>
<path fill="none" stroke="grey" stroke-width="2" d="M469.38,-372.83C390.04,-365.98 235.29,-350.4 106,-324 104.72,-323.74 103.42,-323.46 102.12,-323.18"/>
<polygon fill="grey" stroke="grey" stroke-width="2" points="102.55,-319.68 92.02,-320.79 100.94,-326.5 102.55,-319.68"/>
</g>
<!-- 23 -->
<g id="node24" class="node">
<title>23</title>
<path fill="none" stroke="#567bd8" stroke-width="2" d="M672,-324C672,-324 616,-324 616,-324 610,-324 604,-318 604,-312 604,-312 604,-300 604,-300 604,-294 610,-288 616,-288 616,-288 672,-288 672,-288 678,-288 684,-294 684,-300 684,-300 684,-312 684,-312 684,-318 678,-324 672,-324"/>
<text text-anchor="middle" x="644" y="-303.5" font-family="sans" font-size="10.00">kraken_build</text>
</g>
<!-- 21&#45;&gt;23 -->
<g id="edge35" class="edge">
<title>21&#45;&gt;23</title>
<path fill="none" stroke="grey" stroke-width="2" d="M551.84,-359.88C567.94,-350.64 588,-339.13 605.29,-329.21"/>
<polygon fill="grey" stroke="grey" stroke-width="2" points="607.11,-332.2 614.04,-324.19 603.63,-326.13 607.11,-332.2"/>
</g>
<!-- 24 -->
<g id="node25" class="node">
<title>24</title>
<path fill="none" stroke="#d86656" stroke-width="2" d="M269.5,-252C269.5,-252 196.5,-252 196.5,-252 190.5,-252 184.5,-246 184.5,-240 184.5,-240 184.5,-228 184.5,-228 184.5,-222 190.5,-216 196.5,-216 196.5,-216 269.5,-216 269.5,-216 275.5,-216 281.5,-222 281.5,-228 281.5,-228 281.5,-240 281.5,-240 281.5,-246 275.5,-252 269.5,-252"/>
<text text-anchor="middle" x="233" y="-231.5" font-family="sans" font-size="10.00">Centrifuge_build</text>
</g>
<!-- 21&#45;&gt;24 -->
<g id="edge37" class="edge">
<title>21&#45;&gt;24</title>
<path fill="none" stroke="grey" stroke-width="2" d="M469.35,-377.83C374.59,-378.08 181.22,-372.46 139,-324 128.49,-311.94 130.93,-301.82 139,-288 147.3,-273.8 160.95,-263.11 175.32,-255.18"/>
<polygon fill="grey" stroke="grey" stroke-width="2" points="177,-258.26 184.32,-250.6 173.82,-252.02 177,-258.26"/>
</g>
<!-- 25 -->
<g id="node26" class="node">
<title>25</title>
<path fill="none" stroke="#d8ac56" stroke-width="2" d="M894,-324C894,-324 818,-324 818,-324 812,-324 806,-318 806,-312 806,-312 806,-300 806,-300 806,-294 812,-288 818,-288 818,-288 894,-288 894,-288 900,-288 906,-294 906,-300 906,-300 906,-312 906,-312 906,-318 900,-324 894,-324"/>
<text text-anchor="middle" x="856" y="-303.5" font-family="sans" font-size="10.00">metacache_build</text>
</g>
<!-- 21&#45;&gt;25 -->
<g id="edge40" class="edge">
<title>21&#45;&gt;25</title>
<path fill="none" stroke="grey" stroke-width="2" d="M574.68,-362.17C577.82,-361.4 580.95,-360.67 584,-360 674.63,-339.97 701.61,-344.95 795.93,-324.1"/>
<polygon fill="grey" stroke="grey" stroke-width="2" points="796.9,-327.47 805.89,-321.86 795.36,-320.64 796.9,-327.47"/>
</g>
<!-- 26 -->
<g id="node27" class="node">
<title>26</title>
<path fill="none" stroke="#56d8c9" stroke-width="2" d="M988,-324C988,-324 936,-324 936,-324 930,-324 924,-318 924,-312 924,-312 924,-300 924,-300 924,-294 930,-288 936,-288 936,-288 988,-288 988,-288 994,-288 1000,-294 1000,-300 1000,-300 1000,-312 1000,-312 1000,-318 994,-324 988,-324"/>
<text text-anchor="middle" x="962" y="-303.5" font-family="sans" font-size="10.00">ganon_build</text>
</g>
<!-- 21&#45;&gt;26 -->
<g id="edge42" class="edge">
<title>21&#45;&gt;26</title>
<path fill="none" stroke="grey" stroke-width="2" d="M574.63,-361.96C577.79,-361.24 580.93,-360.58 584,-360 726.11,-332.97 768.93,-356.31 913.61,-323.99"/>
<polygon fill="grey" stroke="grey" stroke-width="2" points="914.78,-327.32 923.75,-321.68 913.22,-320.49 914.78,-327.32"/>
</g>
<!-- 28 -->
<g id="node29" class="node">
<title>28</title>
<path fill="none" stroke="#a7d856" stroke-width="2" d="M262,-324C262,-324 160,-324 160,-324 154,-324 148,-318 148,-312 148,-312 148,-300 148,-300 148,-294 154,-288 160,-288 160,-288 262,-288 262,-288 268,-288 274,-294 274,-300 274,-300 274,-312 274,-312 274,-318 268,-324 262,-324"/>
<text text-anchor="middle" x="211" y="-303.5" font-family="sans" font-size="10.00">catEverythingTogether</text>
</g>
<!-- 21&#45;&gt;28 -->
<g id="edge44" class="edge">
<title>21&#45;&gt;28</title>
<path fill="none" stroke="grey" stroke-width="2" d="M469.24,-365.13C418.4,-353.68 341.03,-336.27 284.23,-323.48"/>
<polygon fill="grey" stroke="grey" stroke-width="2" points="284.76,-320.01 274.23,-321.23 283.22,-326.84 284.76,-320.01"/>
</g>
<!-- 22 -->
<g id="node23" class="node">
<title>22</title>
<path fill="none" stroke="#56d873" stroke-width="2" d="M685,-396C685,-396 605,-396 605,-396 599,-396 593,-390 593,-384 593,-384 593,-372 593,-372 593,-366 599,-360 605,-360 605,-360 685,-360 685,-360 691,-360 697,-366 697,-372 697,-372 697,-384 697,-384 697,-390 691,-396 685,-396"/>
<text text-anchor="middle" x="645" y="-375.5" font-family="sans" font-size="10.00">downloadTaxData</text>
</g>
<!-- 22&#45;&gt;12 -->
<g id="edge22" class="edge">
<title>22&#45;&gt;12</title>
<path fill="none" stroke="grey" stroke-width="2" d="M615.16,-359.88C599.06,-350.64 579,-339.13 561.71,-329.21"/>
<polygon fill="grey" stroke="grey" stroke-width="2" points="563.37,-326.13 552.96,-324.19 559.89,-332.2 563.37,-326.13"/>
</g>
<!-- 22&#45;&gt;17 -->
<g id="edge28" class="edge">
<title>22&#45;&gt;17</title>
<path fill="none" stroke="grey" stroke-width="2" d="M669.46,-359.88C682.3,-350.89 698.2,-339.76 712.09,-330.03"/>
<polygon fill="grey" stroke="grey" stroke-width="2" points="714.26,-332.79 720.44,-324.19 710.24,-327.06 714.26,-332.79"/>
</g>
<!-- 22&#45;&gt;23 -->
<g id="edge36" class="edge">
<title>22&#45;&gt;23</title>
<path fill="none" stroke="grey" stroke-width="2" d="M644.75,-359.7C644.64,-351.98 644.51,-342.71 644.39,-334.11"/>
<polygon fill="grey" stroke="grey" stroke-width="2" points="647.89,-334.05 644.24,-324.1 640.89,-334.15 647.89,-334.05"/>
</g>
<!-- 22&#45;&gt;24 -->
<g id="edge38" class="edge">
<title>22&#45;&gt;24</title>
<path fill="none" stroke="grey" stroke-width="2" d="M592.85,-362.05C589.87,-361.32 586.9,-360.63 584,-360 485.06,-338.37 452.79,-362.2 359,-324 320.89,-308.48 283.15,-279.53 259.05,-258.87"/>
<polygon fill="grey" stroke="grey" stroke-width="2" points="261.26,-256.15 251.42,-252.21 256.65,-261.42 261.26,-256.15"/>
</g>
<!-- 22&#45;&gt;25 -->
<g id="edge41" class="edge">
<title>22&#45;&gt;25</title>
<path fill="none" stroke="grey" stroke-width="2" d="M696.35,-359.97C726.53,-349.95 764.82,-337.25 796.34,-326.79"/>
<polygon fill="grey" stroke="grey" stroke-width="2" points="797.49,-330.1 805.88,-323.63 795.29,-323.45 797.49,-330.1"/>
</g>
<!-- 22&#45;&gt;26 -->
<g id="edge43" class="edge">
<title>22&#45;&gt;26</title>
<path fill="none" stroke="grey" stroke-width="2" d="M697.06,-369.21C749.7,-360.8 833.45,-345.93 914.12,-324.03"/>
<polygon fill="grey" stroke="grey" stroke-width="2" points="915.23,-327.35 923.94,-321.32 913.37,-320.6 915.23,-327.35"/>
</g>
<!-- 23&#45;&gt;13 -->
<g id="edge23" class="edge">
<title>23&#45;&gt;13</title>
<path fill="none" stroke="grey" stroke-width="2" d="M634.36,-287.7C629.87,-279.64 624.44,-269.89 619.48,-260.98"/>
<polygon fill="grey" stroke="grey" stroke-width="2" points="622.45,-259.14 614.53,-252.1 616.34,-262.54 622.45,-259.14"/>
</g>
<!-- 24&#45;&gt;14 -->
<g id="edge24" class="edge">
<title>24&#45;&gt;14</title>
<path fill="none" stroke="grey" stroke-width="2" d="M241.4,-215.7C245.27,-207.73 249.95,-198.1 254.24,-189.26"/>
<polygon fill="grey" stroke="grey" stroke-width="2" points="257.47,-190.63 258.69,-180.1 251.17,-187.57 257.47,-190.63"/>
</g>
<!-- 25&#45;&gt;15 -->
<g id="edge25" class="edge">
<title>25&#45;&gt;15</title>
<path fill="none" stroke="grey" stroke-width="2" d="M852.79,-287.7C851.35,-279.98 849.63,-270.71 848.04,-262.11"/>
<polygon fill="grey" stroke="grey" stroke-width="2" points="851.44,-261.3 846.18,-252.1 844.56,-262.58 851.44,-261.3"/>
</g>
<!-- 26&#45;&gt;16 -->
<g id="edge26" class="edge">
<title>26&#45;&gt;16</title>
<path fill="none" stroke="grey" stroke-width="2" d="M962,-287.7C962,-279.98 962,-270.71 962,-262.11"/>
<polygon fill="grey" stroke="grey" stroke-width="2" points="965.5,-262.1 962,-252.1 958.5,-262.1 965.5,-262.1"/>
</g>
<!-- 27 -->
<g id="node28" class="node">
<title>27</title>
<path fill="none" stroke="#d89c56" stroke-width="2" d="M618.5,-468C618.5,-468 547.5,-468 547.5,-468 541.5,-468 535.5,-462 535.5,-456 535.5,-456 535.5,-444 535.5,-444 535.5,-438 541.5,-432 547.5,-432 547.5,-432 618.5,-432 618.5,-432 624.5,-432 630.5,-438 630.5,-444 630.5,-444 630.5,-456 630.5,-456 630.5,-462 624.5,-468 618.5,-468"/>
<text text-anchor="middle" x="583" y="-447.5" font-family="sans" font-size="10.00">createAllFolders</text>
</g>
<!-- 27&#45;&gt;21 -->
<g id="edge33" class="edge">
<title>27&#45;&gt;21</title>
<path fill="none" stroke="grey" stroke-width="2" d="M567.92,-431.7C560.61,-423.3 551.69,-413.07 543.66,-403.86"/>
<polygon fill="grey" stroke="grey" stroke-width="2" points="546.11,-401.34 536.91,-396.1 540.84,-405.94 546.11,-401.34"/>
</g>
<!-- 27&#45;&gt;22 -->
<g id="edge34" class="edge">
<title>27&#45;&gt;22</title>
<path fill="none" stroke="grey" stroke-width="2" d="M598.33,-431.7C605.76,-423.3 614.82,-413.07 622.98,-403.86"/>
<polygon fill="grey" stroke="grey" stroke-width="2" points="625.84,-405.91 629.85,-396.1 620.6,-401.27 625.84,-405.91"/>
</g>
<!-- 28&#45;&gt;24 -->
<g id="edge39" class="edge">
<title>28&#45;&gt;24</title>
<path fill="none" stroke="grey" stroke-width="2" d="M216.44,-287.7C218.89,-279.9 221.84,-270.51 224.57,-261.83"/>
<polygon fill="grey" stroke="grey" stroke-width="2" points="227.96,-262.69 227.62,-252.1 221.29,-260.59 227.96,-262.69"/>
</g>
</g>
</svg>
